<?xml version="1.0" encoding="UTF-8"?>
<svg id="Layer_1" data-name="Layer 1" xmlns="http://www.w3.org/2000/svg" viewBox="0 0 1061.82 1583.07" fill="#ffffff">
  <path d="M875.74,30.19c-18.5,5.7-27.2,24.1-29,62.1-.7,13.8-1.2,17.7-3.3,23.5-1.4,3.8-3.7,10.3-5.1,14.4-1.4,4-3.3,12.4-4.2,18.5-2,13.9-4.1,19.7-17.2,47.6-12.7,27.3-15.9,36-14.6,39.8,2.8,8.1,25.3,9.5,40.3,2.5,6.7-3.2,12.4-10.3,16.9-21,2.3-5.4,7.1-17,10.8-25.8,11.7-28.1,21-43.8,28.7-48.5,13.9-8.5,32.9,12.6,29.7,32.9-1.3,7.7-2.4,10.7-11.2,30.6-12.1,27.1-16.2,39.5-21.4,65.3-5.5,27.1-10.7,45.4-17.6,61.7-12.4,29.5-15.4,38.3-18.5,54-2.1,10.8-2.1,27.4.1,34.7,4.3,14.5,16.4,22.8,33.3,22.8,14.1,0,17.4-4.7,13.8-19.5-.8-3.3-1.5-9.9-1.5-14.8,0-19.4,7.5-30.2,42.1-60.4,15.8-13.8,26.8-25.1,30.6-31.5,3.9-6.4,8.1-18.4,15.8-44.8,6-20.4,10.9-33.7,21.8-58.2,19.8-44.4,20.2-51.6,4.2-77.9-28.6-47-86.1-97.7-120.9-106.8-8-2.1-18.8-2.6-23.6-1.2Z"/>
  <path d="M38.14,84.19c-6.5,1.1-8.9,3.3-11.9,10.8-3,7.6-3.3,12.8-1.1,19.3,4.9,14.7,5.1,16.4,5,43-.1,27.4-1.1,35.6-6.9,56.9-5.1,18.8-3.1,29,11.5,58.2,10.2,20.2,13.7,29.1,15.5,39.6,2.4,13.6.8,20.1-10.5,43.8-7.3,15.2-9.3,20.8-10.9,29.8-1.8,10.2.3,16.4,12.6,36.4,8.9,14.5,13.3,32.6,13.3,54.8,0,16.4-1.7,27.6-6.6,42.6-4.8,14.8-4.4,22,1.4,29.7,6.2,8.1,16.8,11.2,39.3,11.2,16.9,0,25.2-1.1,31.2-4.2,9.3-4.7,17.8-15.7,24.1-31,5-12.2,12.3-34.4,13.7-41.5,1.5-8.2.6-36.1-1.5-46.7-8.8-43.1-8.6-60.9.6-87.4,4-11.2,4.1-12.2,4.1-23.7,0-9.5-.7-15-3.1-26.5-3.6-17-5.6-36.7-4.7-46.5,2.5-27.7,6.8-46.2,16.5-70.7,3.5-8.8,7.9-17.9,6.6-13.5-.4,1.1-.9,3.1-1.2,4.5-.3,1.5-1.5,5.5-2.5,9-5.4,18.2-8.9,43.3-8.9,64.3,0,22.4,2.6,35.2,10.7,53.4,2.5,5.5,5.2,12,5.9,14.5,2.9,9.4,1.5,20.2-6,46-2.4,8.5-5.1,19-6,23.4-2.2,10.9-2.1,26.4.3,35.9,2.2,8.5,3.6,11.6,12.8,27.4,3.6,6.2,7.9,14.5,9.6,18.5,2.9,6.8,3.2,8.1,3.1,18.3-.1,13.2-2.6,26.8-8.4,45-5.2,16.4-5.8,20.9-3.1,25.2s6.7,5.3,23.6,6c19.9.8,31.6-1.2,40.1-7,6.1-4.1,11.1-13,15.9-28.2,5.7-18.2,6.8-29.5,6.3-62.5-.8-45.8.7-58.4,10.6-88,9.8-29.6,12.4-43.9,10.4-58.3-1.3-10.4-4.4-18.8-12.9-35.8-8.5-17.1-10.3-23.2-9.6-31.9.7-8.6,3.5-16.8,10.7-31.5,8.9-18.3,12.9-32.2,15.1-52.7,2-18.9-1.3-38.9-8.3-50.9-3.6-6.1-11.3-13.6-16.8-16.4-9.9-5-31.1-6-36.8-1.8-5.6,4.2-5.9,5.8-3.3,19.5,3.4,17.5,3.9,46.4,1.6,89.9-1.5,28.3-1.6,35.8-.6,48,1.5,18.1,4,30.1,8.6,42.1,7,18.2,7.7,22.7,4.9,35.1-1.5,6.5-4.4,14.1-10.4,27.2-11.3,24.7-12.5,28.8-12.4,43.5.1,10.6,3.4,33.8,6.5,45,2.6,9.6,8.9,37.3,8.6,37.7-.7.6-4.2-8.1-9.2-22.7-10.8-31.5-14.7-49.7-14.8-69,0-11.4.3-13.9,4.1-29,10.2-41.1,9.9-48.5-3.8-91.5-1.6-5-3.4-11.7-3.9-15-.6-3.3-1.3-7.4-1.6-9-.4-1.7-1-24.4-1.4-50.5-.7-43.2-1-48.5-3-58.4-5.3-25.9-13.5-37.7-30.4-43.6-7.3-2.6-21-3.5-30.9-2.1-9.7,1.3-12.3,2.6-14.3,6.6-2,4.3-1.9,9.3.4,21.2,4.3,21.8,3.8,38.5-2.5,74.8-5.2,30.1-6.4,40.5-6.4,55.5,0,16,.8,21,6,38.5s6.4,24.2,5.7,33.3c-.7,10.1-3,16.5-12.6,34.1-10.7,19.8-12.3,24.6-12.9,39.8-.5,13.4.6,23,4.5,39.3,5.6,23.9,5,24.1-4.2,1.3-8.7-21.5-9.9-26.3-9.9-40.3,0-12.9,1.1-17.7,9.3-42.5,5.1-15.4,8.1-28.7,8.1-35.7,0-5.8-2.6-17.7-7-31.8-2.1-6.9-4.6-15.9-5.5-20-2.5-11.7-3-38.9-1.1-66.7,1.9-28.3,2-39.8.5-53.1-2.3-21.6-8.5-37.8-17.7-46.4-13.4-12.5-28.5-18.3-41.8-15.9Z"/>
  <path d="M329.94,94.19c-7.1,3.4-7.4,5.6-2.2,24.6,1.9,7,2.1,9.7,1.7,22-.6,16.6-1.6,21.1-11.7,49-9,24.9-11.6,33.5-13.5,45.3-2.4,14-.7,21.8,10.4,48.2,8.1,19.6,9.4,25.5,8.8,40.5-.5,14.2-2.3,21.5-10.3,42.2-9.5,25.1-14.2,38.7-15.9,46.7-.8,4.2-2.2,19-3,32.9-2.8,47.5-5.5,63.5-14.5,87.2-6.3,16.6-6.3,21.7.2,25.2,2.7,1.5,5.6,1.8,15.8,1.8,20.3-.1,25.3-3.4,35.4-23.6,3.2-6.3,8.2-15.5,11.1-20.4,12-20.6,16-30.5,17.8-44.9,1.6-11.9,3-14.7,8.9-17.7,3.6-1.9,5.4-2.1,14.7-1.7,8.2.3,11.7.9,15.6,2.6,10,4.5,14.5,11.4,15.3,22.9.6,10.2-1,17.1-8.2,35.1-8.2,20.4-9.8,25.4-9.9,31.1-.1,8.7,4.7,13.8,15.1,16,11,2.3,27.1.8,35.7-3.4,6.6-3.2,15.4-12.4,19.9-20.6,4.2-7.7,7.5-21.3,7.6-30.9,0-10.8-2.9-32-5.6-41-3.4-10.9-6-16.1-15.1-29.3-14.8-21.4-15.1-29.1-2.3-60.8,7.6-19,9-24.5,9-36.7,0-16.5-3.5-30.1-16.5-64.2-13.3-35.1-13.4-35.6-14.5-74.5-1.2-43.9-2.5-52.1-11.6-71.4-7.8-16.7-17.6-28.1-27.2-31.7-4-1.5-8.8-1.8-30.7-2.1-24.2-.3-26.3-.2-30.3,1.6ZM387.94,158.99c.5,9.1-.9,16.3-9.7,49-5.5,20.8-6.7,34.2-4.1,49,2.6,14.5,7,26.6,14.6,40.5,8.3,15.1,9.3,19,8.7,34.3-.7,15.1-2.8,24.1-10.6,44.1-6.8,17.3-9.5,21.5-16.3,24.7-9.6,4.6-20,4.5-26.2-.4-2.1-1.6-2.6-2.9-2.6-6.4,0-5.1,1.6-9,7.4-18.7,12.7-20.9,15.9-45.1,12.5-94.4-.6-9.8-.9-26.1-.6-37.6.6-24.9,2.4-33,12.8-58.2,11.7-28.6,13.7-32.3,14.1-25.9Z"/>
  <path d="M570.24,93.19c-9.7,2.5-10.6,4.5-9.8,21.1,1,22.1-1.2,32.8-15.9,76.5-4.9,14.8-10.1,31.7-11.4,37.5-3.3,14.2-4.2,33.7-2,44,2.6,12.1,2,12.6-3.9,3.4-12.5-19.4-14.8-31.4-11-54.9,2.3-13.8,3.1-38.2,1.6-48.6-2.7-18.3-10.4-39.1-18.3-49.2-3.3-4.1-18.3-14.5-29.3-20.2-8.9-4.6-21.5-6.9-33.6-6.2-4.7.2-9.9,1.1-11.5,1.9-2.5,1.2-2.9,1.9-2.8,5.1.1,4.1,2.7,7.8,18.4,26.7,16.7,20.2,22.8,31.5,23.7,44.5.5,6,0,9-3.3,21-3.7,13.4-3.9,14.7-3.8,29,0,12.9.4,16.5,2.7,25.7,3.8,15.4,8.6,27,18.7,45.9,5,9.1,9.8,19.1,10.9,22.1,4.6,13.5,5.1,29.9,1.5,53.8-4.6,31.1-2.1,46.7,12.7,78.2,8.5,18,9.8,23.6,8.1,35.4-1.3,8.4-9.4,33.3-16.6,50.4-3.8,9.1-4.6,16.1-2.2,19.3,2.4,3.1,10,4.7,22,4.7,18.9,0,28.4-3.2,35.5-11.7,6-7.1,13.7-24.7,19.1-43.4,7.6-26.6,7.2-32.1-4.5-56.9-14.6-31-12.8-48.3,9.1-87.7,15.8-28.4,18.1-39.2,12.6-60.8-6.7-26.6-7-62.6-.7-81,1-2.8,7.4-16.3,14.4-30,15.4-30.2,16.6-34.3,16.5-53.5-.2-23.2-4.8-34.6-16.4-40.6-2.7-1.4-6.3-1.8-15.5-2-6.6-.2-13.3,0-15,.5Z"/>
  <path d="M627.34,94.39c-1.4,1.1-2.6,2.9-2.6,3.9s2.4,6.5,5.4,12.2c2.9,5.7,6,12.8,6.7,15.8,1.9,7.3,1.6,24.9-.5,43-2.9,24.5-6.2,37.2-13.1,51.1-11.3,22.3-11.6,32.7-1.7,51.9,15.2,29.1,17,33,18.1,39.2,1.7,8.6.3,15.7-6.1,31.3-5.6,13.6-12.3,33.4-16.3,47.8-3.7,13.5-3.2,22,1.9,38.2,12.7,40.4,14.5,74.5,5.5,106.6-4,14.3-2.4,21.1,5.7,23.6,5.6,1.7,33.6,1.6,48.6-.2,25.8-3,47.6-11.3,71.7-27.2,11.4-7.5,31.2-27.3,36.7-36.8,7.5-12.9,9.7-19.7,10.2-31.5.3-9.2,0-12.1-2.8-23.5-5.3-21.8-5.1-38.3.6-55.4,1.4-4.2,6.7-16,11.8-26.2,17.1-34.3,16.9-38.1-3.9-79.7-13.2-26.5-15.7-33.6-16.2-46.7-.4-9.4-.2-10.8,3.7-24,9.3-32,5.7-50.2-14-70.9-11-11.4-23.1-20.2-37.5-27.1-27.7-13.3-48.5-17.5-86.2-17.5-21.8,0-23.2.1-25.7,2.1ZM721.94,149.99c8.9,6,14.1,19.4,14.1,36.3,0,8.7-.5,12.6-3.3,23-6.7,25.2-5.1,33.3,15.5,77,10.8,22.9,12.5,27.8,12.5,35.4,0,8.3-1.9,14.1-11.8,36.2-19.9,44.2-21.6,54.1-14.2,79.8,4.5,15.5,5,22.7,2.5,33.5-4,16.8-18.1,31.6-27.4,28.6-4.5-1.4-6.3-6-7.8-19.4-2.3-20.9-6.4-34.4-15.2-50.4-9.2-16.8-10.2-26.6-4.6-44.6,4-12.3,7.7-22.3,15.6-41.1,5-12.1,5.2-12.8,5.3-22.5.1-11.4-.6-13.6-14.1-45.5-9.6-22.8-10.7-26.4-10-35.9.4-6.2,1.5-10.2,6-21.6,7-17.5,11.8-33.6,15.2-50.1,3-14.6,4.6-18.2,9.5-20.6,4-2,7-1.6,12.2,1.9Z"/>
  <path d="M883.04,490.39c-7,1.7-12.2,7.5-24.2,27.7-10.8,18-15.1,27-15.1,31.7,0,3.7,4.4,8.1,9.4,9.4,5.7,1.4,32.9,1.4,39.5,0,8.8-1.9,10.9-4,18.6-19.5,3.9-7.7,9.7-18.5,13.1-23.9,9.6-15.8,10.5-19.9,5.1-23.9-2.6-1.9-4.2-2.1-22.5-2.3-10.8-.1-21.6.3-23.9.8Z"/>
  <path d="M876.54,581.79c-22.1,5.6-38.3,25.2-49.7,60-4.6,14.2-8.9,33.1-13.2,58.5-1.7,10.2-3.5,18.9-3.9,19.4-.5.4-1.3-1.8-2-5-15.4-76.7-51.7-119.7-108.8-129-9.9-1.6-50.2-2.2-56-.8-7.6,1.9-11.2,6.3-11.2,14.1,0,2.1,1,10.5,2.1,18.8,2.9,20.1,2.2,36.8-2.5,69-3.1,20.4-3.6,26.6-3.6,41.5,0,19.1.9,24.4,9.3,52,9.2,30.4,9.4,42.1,1.2,95-3.7,23.4-4.5,41.8-3.4,73.7,1,29.3.1,52.5-2.7,71.7-2.6,18.2-1.4,26.4,4.3,29.4,2.7,1.5,21,3.2,33.1,3.2,39.1-.1,70.9-12.9,94.6-38,18.5-19.8,32.6-49.4,40.6-85.3,1.6-7.2,3.2-15,3.5-17.2s1-6.7,1.6-10c4.3-27,6.8-86.9,5.1-122.2-.7-13.1-1.9-29.6-2.7-36.7-.9-7.1-1.4-13-1.2-13.2s2.3.7,4.8,1.9c3.9,1.9,5.9,2.2,16.9,2.2,22.2-.1,25.9-3.8,28.6-28,2.8-26.2,14-56.2,24.9-67.2,12-11.9,27-8.8,35.8,7.5,7.2,13.5,5.9,23.3-9.8,71.2-9.8,30-11,34.1-17.4,61-2.7,11.3-7.5,27.9-10.6,37-15.2,44.4-16.7,49.3-19.1,63.3-2.1,12.8-1.6,36.2,1,42s9.1,12.4,14.4,14.4c6.3,2.4,19.4,2.4,24.2,0,6.3-3.1,6.8-5,6.7-25.2,0-15.9.3-19.4,2.6-30,3-13.5,8.1-29.4,15.7-49.5,6.3-16.4,14.8-41.1,22.8-66,5.4-16.8,8.3-25.1,21.7-61,6.1-16.6,7.6-23.1,8.2-36.2.7-13.6-.5-21.3-4.8-30.6-10.3-22.8-38.2-45.7-65.5-53.7-11.1-3.3-27-4.2-35.6-2ZM717.54,642.09c7.6,5.1,12.8,14.4,16.3,29.1,1.7,7.2,2,11.2,1.8,24.6-.7,35.5-.3,38.7,10.5,76.3,8.7,30.3,9,32.5,9,70.7.1,25.5-.3,36.4-1.7,48-5.9,49.8-20.1,87.8-37.2,99.3-5.9,4-9.8,4-12.8,0-2.2-3-2.8-8.2-4.6-46.3-4.7-94.7-4.7-202.3,0-268,1.8-25.3,3.6-32.6,8.9-35.2,3.7-1.8,5.2-1.6,9.8,1.5Z"/>
  <path d="M55.24,584.99c-4.4,1.1-8.3,3.5-9.4,5.9-1.6,3.6-1.4,10.9.8,22,3.5,17.3,4.3,28.9,5.1,72.4.8,45.5.9,45.8,7.6,76.7,4,18.4,6.2,31.7,7.5,44.3,1.3,13.4-.1,28-4.7,47.5-6.1,26.3-6.5,29-7.1,45.5-.6,17.7.5,29.3,5.2,57.5,1.3,7.7,2.8,18.9,3.4,25,.6,6,1.4,13.5,1.7,16.5s-.1,12.9-.7,22c-.7,9.1-.9,17.8-.5,19.5.4,1.6,2.5,4.6,4.6,6.6,5.1,4.9,10.2,5.9,29,5.9,21.5,0,29.4-2.1,36-9.6,4-4.6,5.6-8.3,7.5-17.6,5.1-24.1,7.1-45.2,9-95.8,2-53.1,3.6-71.1,8.6-96.5,2.3-11.9,2.3-22.2-.1-63.8-1.8-30.8.6-50.5,11.1-94,3.2-13.1,5.3-16,3.9-5.2-.5,3.3-1.9,13.4-3.1,22.5-1.8,12.8-2.3,21.4-2.3,38.5-.1,22.9.6,30.2,5,52.5,6,30.6,6.3,36.7,3.3,68.5-2.6,26.8-2,38.7,3.6,77.5,5.3,37.2,5.9,44.6,5.9,79.2.1,32.6.2,33.7,2.2,36.5,1.2,1.5,3.6,3.7,5.5,4.8,3.1,1.8,5.2,2,25.9,2h22.5l6-3c8.5-4.3,11.4-8.5,14.8-22,4.6-18.8,5.8-30.5,6.7-70,1.2-46.4,2.2-56.9,8-85,10.4-50.3,10.4-60.1.1-100.8-7.6-29.6-7.5-42.5.5-84.2,5.2-26.6,6.6-37.6,6.5-51.5,0-23.4-3.7-36.8-12.3-44.5-5.8-5.2-12.4-7-23.3-6.3-17,1.1-19.4,6.1-16,33.3,1.9,15.2,1.9,40.5-.1,66-.8,11-1.8,30.1-2.1,42.5-.5,20.2-.3,23.8,1.6,35,8.1,46.2,8,54.8-1.4,93.7-7.9,32.4-8,40.5-1.5,80.3,1.6,9.6,3.1,20.4,3.4,24,.5,5.6,0,4.4-3.3-8.5-2.1-8.3-5.2-19.7-6.9-25.5-6.4-22.2-8.1-35.9-6.4-53,.5-5.2,2-21.2,3.2-35.4,2.3-25.3,2.3-26.3.7-41.2-1.1-9.3-2.6-18-4.1-22.5-5.6-16.8-7.6-35-8.6-78.4-1.2-47.8-2.5-61.5-7.9-83.2-2.4-9.7-4.2-13.6-8.5-18.1-6.2-6.7-14.4-9.2-30.1-9.2-19.3,0-26.2,2-29.8,8.5-.8,1.4-1.2,13-1.2,36-.1,29.2-.5,36.1-2.3,49-7.4,51.2-8.2,73.3-3.8,106.9,3.7,28,3.3,31.1-7.9,69.2-6.2,21.1-7.5,29-7.5,46.2.1,11.3.6,17.6,4,43.7.9,6.7,1.2,20.7.3,15.5-.2-1.4-1.2-6.1-2.3-10.5-2.8-11.4-7.7-33.9-9.1-41.5-.7-3.6-1.2-11.9-1.2-18.5,0-11.7.8-18.1,5.4-48.5,1.7-11.3,2.2-19,2.3-35,0-19.7-.1-21-3.2-33.6-4.6-18.8-5.5-30.1-4.8-56.4,1.8-65.7,1.9-73.2.3-84.5-2.6-18.2-9.5-36.8-15.3-41.4-4.1-3.2-11.9-5.1-20.3-5-4.2.1-8.5.3-9.6.6ZM114.44,967.99c-.3,1-.5.4-.5-1.2,0-1.7.2-2.4.5-1.8.2.7.2,2.1,0,3Z"/>
  <path d="M344.54,585.19c-4.6,1.5-8.5,4.3-10.4,7.5-1.7,2.8-1.9,5-1.7,21.1.4,23.9-1.4,36.7-9.2,67.7-9.2,36.7-9.8,40.7-9.9,59.8-.1,14.8.3,18.2,3.2,32.5,1.7,8.8,3.6,20.2,4.2,25.4,1.7,15.6-1,35.2-9,64.6-8.9,32.6-11,44.3-13.5,74.5-3.7,44.4-5.7,59.1-11.4,82.5-4.2,17.3-4.3,17.9-3.1,22.4.7,2.6,2.2,4.8,4.3,6.3,2.9,2.1,4.2,2.3,16.2,2.3,14.9,0,18.8-1,24.8-6.4,3.5-3.2,9.7-14,9.7-17.1,0-.6,3.2-9.7,7.1-20.3,8.2-22.2,10.3-29.6,11.8-42.7,2-16.5,6.7-21.2,21.5-21.9,19.7-.9,29.9,6.5,32.7,23.6,1.4,8.5.5,17.2-4.2,40.5-7.4,36.1-3,44.7,22.8,44.8,10.7,0,17.3-1.5,22.2-5.1,5.1-3.6,8-9.2,9.7-18.8,3.1-17.6,1.1-34.4-9.9-83.6-2.5-11-5.1-24.4-5.8-29.9-1.8-15.1-.7-36.6,3.2-57.1,2.6-14.4,3.1-19.4,3.2-33,0-17.8-1.9-29.3-8.9-53.5-12.1-41.8-13.7-51.5-16.4-96.5-1.4-24.5-2.7-35.2-6.1-51-5-22.8-11-32.7-22.8-37.1-3.8-1.5-8.7-1.8-28.1-2-12.9-.2-24.7.1-26.2.5ZM383.24,673.19c-.8,8-2.1,18.6-2.7,23.6-.6,4.9-1.1,17.8-1.1,28.5,0,22.7.8,28,8.7,59.2,6.8,26.8,8,35.8,7.3,54-.5,13.3-3.3,33.6-5.8,41.8-3.3,10.7-10.2,15.3-22.9,15.4-11.6.1-17.7-4.5-16.6-12.4.3-1.9,2.6-9.6,5-17,2.5-7.4,5.5-18.2,6.8-24,2.1-9.8,2.2-12.2,1.9-36.5-.3-14.3-.5-36.8-.5-50,0-28.5.6-32.7,9.9-66,3.5-12.7,6.9-25.3,7.5-28,.6-2.8,1.6-6.8,2.3-9l1.2-4,.3,4.9c.2,2.7-.4,11.5-1.3,19.5Z"/>
  <path d="M446.04,585.39c-1.7.5-4.1,2.1-5.2,3.5-3.3,4.2-2.7,9.9,2.3,23.2,8.5,22.9,10.8,33.6,12.6,60.2,3.6,54,7,69.4,26.9,123.3,10.7,29,12.9,42,13.7,79.7.6,32,2,42.6,8.9,66,2.5,8.7,5.5,25.1,5.5,30.3,0,6.4-3.3,26.2-7.1,42.7-4.9,20.9-5.5,25.8-3.6,30.2,2.7,6.3,5.8,7.3,23.7,7.3s21.2-.5,27.2-4.5c5.6-3.7,9.8-11.2,12.7-22.7,3.5-13.5,7.1-33.2,8.3-44.3,1.3-12.6,0-22-6.2-44.8-4.7-17-7-30-7-39.3,0-7.6,2.8-22.7,6.4-34.4,13.2-42.7,12.9-41.2,14.6-70,2.5-41.8,5.2-54.5,22.5-106,12-35.5,14.8-46,16.6-60.3,1-8.2,1-11.9,0-18.7-1.8-11.7-4.3-16.4-10.6-19.5-4.6-2.3-6.1-2.5-18-2.5-14.3,0-19,1.4-22.7,6.5-2.3,3.3-3.8,13.1-3.8,25.5,0,15.8-3.5,33.8-11.5,60-13.7,44.4-16.5,58-16.5,80.9,0,8.3-.4,15.8-1,16.6-2,3.2-8.3-5.7-12.8-18.3l-2.7-7.2v-38c-.1-38.9-.3-42-4.6-62.5-4-19-14-43.8-21.2-52.5-3.7-4.6-10.5-8.5-17.6-10.1-6.3-1.5-24.9-1.7-29.8-.3Z"/>
  <path d="M880.44,982.69c-7.8,2.1-11.3,6.6-16.2,20.5-1.2,3.6-4,11.3-6.1,17.1-3.1,8.5-3.8,11.9-3.9,17.8,0,7,.1,7.5,3.2,10.2,4.1,3.6,9.3,4.3,30,3.8,13.3-.3,16.4-.6,19.8-2.3,4.6-2.3,8.1-7,9.5-12.9.6-2.3,3.7-12.3,7-22.3s6-20,6-22.1c0-5-2.9-8.8-7.8-10.2-5.3-1.4-35.6-1.2-41.5.4Z"/>
  <path d="M887.24,1082.19c-8.5,1.4-16.7,4.1-25,8.4-10.4,5.4-23.1,17.9-29.3,28.8-12.2,21.8-17.7,51.3-15.3,82,1.5,18.5,3,23.6,8,28.2,5.6,5.1,9.8,6.2,23.1,6.1,12.2,0,15.4-.9,19.7-5.6,4-4.3,4.3-6.9,4.3-37.1,0-41.8,2.8-55.1,12.1-58.6,9.1-3.4,16.3,6,21.9,28.4,4.6,18.6,5.3,25.8,4.7,45.4-.6,18.7-2.8,31.5-11,64.6-6.6,26.4-7.7,36.7-7.7,71.5-.1,32.9-1.3,53.8-4,70-1.8,11-1.9,13-.7,16.4,1.9,5.6,6.1,7.6,15.8,7.6,13.5,0,21.5-4.2,26.3-13.8,5.2-10.3,8.1-31.2,11.6-85.7,1.9-28.1,4.8-43.5,14.3-75.5,9.7-32.5,11.1-39.9,11.1-58.5s-1.9-31.1-9.3-63.1c-6.3-26.9-11.4-38.8-21.1-48.4-9.2-9.3-14.3-11.2-31.5-11.6-7.1-.1-15.3.1-18,.5Z"/>
  <path d="M66.44,1086.69c-2.7.8-5.9,2.4-7.1,3.7-4.8,5.1-8.8,18.8-11.1,37.9-3.2,26.3-1.1,59.6,7.5,118,1.7,11.3,4.6,31.3,6.5,44.5,4.3,29.8,5.2,34.6,12.6,62.5,3.2,12.4,6.6,26.3,7.5,31,2.8,14.8,2.9,45.1.4,81.9-2.5,37.3-2.4,62.2.4,70.9,2.2,6.7,8.6,13.6,14.1,15.1,5.3,1.4,37.9,1.4,44.7,0,6.4-1.4,12-6.4,13.7-12.4.7-2.2,1.6-10.8,2.1-19,.5-8.3,1.7-21.6,2.5-29.7,1.5-14.1,2.5-21.5,6-46.8,8-57.3,8.7-71.3,5-97.5-4.2-30-8-79.6-10-130.5-.3-8-1-20.8-1.6-28.5-.5-7.7-1.2-17.4-1.4-21.5-.4-5.8-.3-7.1.6-5.7,1.1,1.9,1.8,6.1,4.4,25.2,1.5,11.4,2.7,19.2,7,46,1.4,8.8,3.3,20.3,4.1,25.5,3.5,21.8,4.4,27.2,6.7,41,3.5,20.2,9.1,51.3,12.8,71.5l3.2,17,.8,59.5c.4,32.7,1.2,63.1,1.7,67.5,1.7,13,4,22.6,6.9,28.5,2.3,4.5,3.7,5.9,7.8,8,4.7,2.4,6,2.5,25.1,2.8,22.6.4,26.8-.3,31.9-5.1,5.9-5.8,6.7-9.5,7.6-35.7.4-12.9,1.2-27.8,1.8-33,3.1-28.4,4.2-39.8,5.2-52,1.4-16.4.6-56.5-1.5-77.5-2-20.2-3.3-37.4-5.1-65.5-3.1-49.4-3.5-58.7-3.5-84.7,0-36.1,2.4-62.6,8-89.7,1.6-7.9,1.8-10.6.9-13.8-2-7.7-7.7-10.8-20-10.8-9.8,0-15.9,2.2-20.7,7.4-6,6.6-8.8,13.1-12.4,29.1-1.7,7.8-1.7,59.4,0,75.5,3.7,34.9,4.4,45.6,5.2,78,.5,19.5,1.4,38.8,1.9,42.8,1.7,11.9,4,24.3,5.6,30.7,6.2,23.4,5.9,45.3-1.1,85.8-1.9,11.1-4.4,26.3-5.6,33.7-1.1,7.4-2.5,13.9-2.9,14.5-1.6,1.7-.9-22.8,1.1-39.5,3.9-31.4,4.2-36.5,3.6-51-.6-16.5-2.4-27-9.5-56.6-5.9-24.9-6.5-27.7-9.1-50.4-1.2-9.6-3.2-23.9-4.5-31.8-1.4-7.8-3.6-20.6-5-28.5-7.4-43.2-9.7-67.6-9.4-100.2.3-28.5-.1-31-5.6-35.3-4.5-3.6-9.8-4.4-25.9-4-13.1.3-15.7.6-20.1,2.6-9.8,4.5-14.2,10.7-17.4,24.4-5.9,25.7-7.6,52.1-6.2,102.3.6,25.8.6,44.7-.1,59-1,21.9-.5,48.1,1.2,55,.5,2.2,2,9.4,3.2,16,3.1,17.1,3.1,47.2-.1,66.5-2,12.2-10,51.5-13.5,66.5l-1.4,6-.1-10.5c-.1-11.4.1-12.6,5.4-43.5,5.7-33.5,5.3-46.5-3.1-92-7-37.8-8.9-52.4-9.9-75-.3-7.2-1.4-20.4-2.5-29.5-8.2-66.3-8.9-78.6-6.5-109.5,1.9-24.5,1.7-28.7-1.6-32.9-4-5.1-19.9-7.2-31.2-4.2Z"/>
  <path d="M354.54,1086.59c-6.2,1.8-9.1,3.8-12.6,8.9-4.1,6.1-5.5,9.1-9.1,19.5-5.3,15.8-8.8,35.8-11.8,68.3-1.6,16.1-1.8,31.8-1.8,121.5-.1,115.6.8,100.5-8.5,157-6.2,37.9-8.1,53.2-8.3,67-.1,12.2.9,15.3,6.3,19.8,4.2,3.6,8.9,4.7,19.7,4.7,14.6,0,21.7-3.2,25.3-11.5,2.8-6.2,3.2-12.5,2.1-33.5-2-38.7,2.1-54.2,16.3-61.5,5.3-2.7,6.9-3,14.6-3,13.9.1,20.6,3.7,23,12.4.5,2,1.4,9.6,2,16.9s2,18.5,3.1,25c2.5,14.6,8.6,38.5,10.9,43.2,4,7.8,10.4,11,23.6,11.7,17.6,1,25.4-1.5,28.3-9.1,1.6-4.2,1.2-9.4-2.8-36.6-1.1-7.4-4.1-32-6.6-54.5-7.1-65.2-10.2-89.9-12.9-105.5-4.3-24-7.4-39.5-17.4-85.5-2.7-12.7-5.4-25.7-6.1-29-.6-3.3-2-10.5-3.1-16-1-5.5-2.6-15.2-3.4-21.5-.9-6.3-2-14.7-2.5-18.5-2.2-16.1-3.4-39.5-2.9-56.6.6-19.5-.1-25.1-3.5-28.7-5.1-5.4-6.4-5.7-32.7-5.9-17.6-.2-25.8.1-29.2,1ZM369.24,1163.09c1.3,8.5,6.1,36.5,11,63.7,7.8,44.1,19.4,93.7,31.4,135.5,2.8,9.6,5.1,19.5,5.1,22,0,8.5-5.1,12.2-16.5,12.3-8.8,0-15.4-2.7-18.5-7.8-8.1-13.2-17-117.3-17.1-201.2-.1-42.8.9-48.1,4.6-24.5Z"/>
  <path d="M458.34,1086.39c-6.1,1.4-10.1,4.4-12.2,9.1-2.8,6.3-2.5,35.5.5,56.3,6.8,46.6,20.1,88.5,59.6,187.2,10.8,26.9,15.9,40.8,16.5,45.3,2.1,14.3.8,40.7-4.1,85-2.7,24-3.2,63-1,69.5,3.7,10.7,9.4,13.7,26.6,14.3,15.5.5,22.8-.9,27.1-5.2,5.1-5.1,6.4-11.3,6.4-30.3,0-13.7,2.7-53.1,4.5-65.3.3-1.9,1.2-13.6,2.1-26,1.3-19.2,1.4-27.9.5-59-.9-30.1-.9-41.8.4-66.5,1.4-29.4,2-35.7,5.1-62,5.5-45.7,15.1-87,29-124.6,6.9-18.7,7.1-23.4,1-26.6-4.2-2.2-21.6-3-29.8-1.3-13,2.5-19.5,7.9-25.4,20.8-10.1,22.2-14.5,46.1-16.4,89.7-1.6,36-2.8,53.6-4.5,64.8-2.6,17.1-5,17.6-8.5,1.9-3.9-17.5-7.4-30.3-16.8-61.2-11-36.3-15.6-59.7-16.7-85-1-23.2-3.6-28.6-14.5-30.9-6-1.3-23.9-1.3-29.4,0Z"/>
  <path d="M653.24,1086.19c-6,1.5-9.5,4.1-11.9,8.9-16.1,32.2-15.3,94.4,3.3,242.7,3.4,27.7,5.2,44.6,6,58.5.8,14-.1,48.1-1.9,70.4-1.6,20.8-1.3,67.4.5,72.5,4.1,11.8,7.7,13.4,30.3,13.9,40.9,1,60-5,81-25.2,26.4-25.4,41.5-64.1,49.4-126.6,1.8-14.5,1.8-86.5,0-101-7.2-57.2-12.9-86.4-22.9-117.3-19.3-60.1-47.6-91.8-86.4-96.6-9.3-1.2-42.7-1.3-47.4-.2ZM700.84,1143.09c5.8,3.8,13.7,12.3,19.2,20.8,17.3,26.8,24.7,58,31.2,130.4.8,9.6,2,21.5,2.5,26.5,3.8,37,3.8,80,0,102.5s-11.9,42.4-22.4,55.2c-11.3,13.6-23,18.7-26.4,11.3-.8-1.8-1-15.6-.5-51.7.6-47.7-.3-84.7-2.7-108.8-.5-5.2-1.6-16.3-2.4-24.5-1.5-14.6-2.9-30.4-6.1-67-.8-9.9-2-23-2.5-29-3.6-39.5-4.3-47.9-4.4-55.5-.1-10.6,1-13,6.2-13,2.5,0,5.4,1,8.3,2.8Z"/>
  <path d="M878.24,1483.79c-4.7,1.7-7.2,4.4-8,8.8-.3,1.8.7,13.7,2.4,26.5,3.3,25.4,4.2,28.2,10.1,31.7,3.2,1.8,5.2,2,23.5,2s20.2-.1,23.6-2.2c4.6-2.9,5.9-5.9,5.9-13.7,0-9.9-4.9-41.4-7.1-45.7-1-2-3.5-4.8-5.6-6-3.6-2.3-4.8-2.4-22.3-2.7-14.3-.1-19.4.1-22.5,1.3Z"/>
</svg>